<svg width="23" height="23" viewBox="0 0 23 23" fill="none" xmlns="http://www.w3.org/2000/svg">
<path d="M21.3094 21.5938L14.7781 15.0625M16.9552 9.61979C16.9552 10.6204 16.7581 11.6113 16.3752 12.5358C15.9923 13.4602 15.431 14.3002 14.7234 15.0078C14.0159 15.7154 13.1759 16.2766 12.2514 16.6596C11.3269 17.0425 10.3361 17.2396 9.33543 17.2396C8.33478 17.2396 7.34394 17.0425 6.41946 16.6596C5.49499 16.2766 4.65499 15.7154 3.94742 15.0078C3.23986 14.3002 2.67859 13.4602 2.29566 12.5358C1.91273 11.6113 1.71564 10.6204 1.71564 9.61979C1.71564 7.5989 2.51843 5.66077 3.94742 4.23179C5.37641 2.8028 7.31453 2 9.33543 2C11.3563 2 13.2944 2.8028 14.7234 4.23179C16.1524 5.66077 16.9552 7.5989 16.9552 9.61979Z" stroke="#94A3B8" stroke-width="2.17708" stroke-linecap="round" stroke-linejoin="round"/>
</svg>
