<svg width="17" height="20" viewBox="0 0 17 20" fill="none" xmlns="http://www.w3.org/2000/svg">
<path d="M8.57366 0.553711C7.04153 0.553711 5.57216 1.16234 4.48879 2.24572C3.40541 3.32909 2.79678 4.79846 2.79678 6.33059V8.64134C2.18393 8.64134 1.59618 8.88479 1.16283 9.31814C0.729484 9.75149 0.486031 10.3392 0.486031 10.9521V16.729C0.486031 17.3418 0.729484 17.9296 1.16283 18.3629C1.59618 18.7963 2.18393 19.0397 2.79678 19.0397H14.3505C14.9634 19.0397 15.5511 18.7963 15.9845 18.3629C16.4178 17.9296 16.6613 17.3418 16.6613 16.729V10.9521C16.6613 10.3392 16.4178 9.75149 15.9845 9.31814C15.5511 8.88479 14.9634 8.64134 14.3505 8.64134H5.10753V6.33059C5.10724 5.48675 5.4148 4.67179 5.97252 4.03853C6.53024 3.40528 7.29982 2.99723 8.13693 2.89091C8.97404 2.78459 9.82119 2.98729 10.5195 3.46102C11.2178 3.93474 11.7193 4.64694 11.93 5.46406C12.0066 5.76083 12.198 6.01501 12.462 6.17069C12.5927 6.24778 12.7374 6.29836 12.8876 6.31955C13.0379 6.34074 13.1909 6.33212 13.3378 6.29419C13.4848 6.25626 13.6228 6.18976 13.7441 6.09848C13.8653 6.0072 13.9674 5.89294 14.0445 5.76221C14.1216 5.63148 14.1722 5.48685 14.1933 5.33657C14.2145 5.18629 14.2059 5.03331 14.168 4.88637C13.8474 3.64638 13.124 2.548 12.1114 1.76378C11.0988 0.979552 9.85442 0.55391 8.57366 0.553711Z" fill="white"/>
<path d="M9.00003 13L9.00003 15" stroke="#64748B" stroke-width="2" stroke-linecap="round"/>
</svg>
